<svg xmlns="http://www.w3.org/2000/svg" xmlns:xlink="http://www.w3.org/1999/xlink" width="922.604" height="686.188" viewBox="0 0 922.604 686.188">
  <defs>
    <linearGradient id="linear-gradient" x1="0.5" y1="1.198" x2="0.5" y2="-0.168" gradientUnits="objectBoundingBox">
      <stop offset="0" stop-color="gray" stop-opacity="0.251"/>
      <stop offset="0.535" stop-color="gray" stop-opacity="0.122"/>
      <stop offset="1" stop-color="gray" stop-opacity="0.102"/>
    </linearGradient>
    <linearGradient id="linear-gradient-2" x1="0.5" y1="1" x2="0.5" y2="0" xlink:href="#linear-gradient"/>
  </defs>
  <g id="undraw_Credit_card_3ed6" transform="translate(6.915 6.911)">
    <rect id="Rectangle_758" data-name="Rectangle 758" width="728.622" height="445.002" rx="27.5" transform="translate(-6.915 209.293) rotate(-17.261)" fill="url(#linear-gradient)"/>
    <rect id="Rectangle_759" data-name="Rectangle 759" width="713.756" height="429.252" rx="27.5" transform="translate(3.95 210.763) rotate(-17.261)" fill="#fff"/>
    <rect id="Rectangle_760" data-name="Rectangle 760" width="713.756" height="61.559" transform="translate(20.735 264.783) rotate(-17.261)" fill="#f84923"/>
    <rect id="Rectangle_761" data-name="Rectangle 761" width="181.351" height="26.62" transform="translate(161.645 527.633) rotate(-17.261)" fill="#bdbdbd"/>
    <rect id="Rectangle_762" data-name="Rectangle 762" width="314.452" height="26.62" transform="translate(148.316 484.733) rotate(-17.261)" fill="#e0e0e0"/>
    <rect id="Rectangle_763" data-name="Rectangle 763" width="732.73" height="445.44" rx="27.5" transform="translate(182.958 233.836)" fill="url(#linear-gradient-2)"/>
    <rect id="Rectangle_764" data-name="Rectangle 764" width="713.756" height="429.252" rx="27.5" transform="translate(191.277 238.378)" fill="#fff"/>
    <rect id="Rectangle_765" data-name="Rectangle 765" width="20.797" height="59.064" transform="translate(361.013 446.76)" fill="#e0e0e0"/>
    <rect id="Rectangle_766" data-name="Rectangle 766" width="20.797" height="59.064" transform="translate(387.633 446.76)" fill="#e0e0e0"/>
    <rect id="Rectangle_767" data-name="Rectangle 767" width="20.797" height="59.064" transform="translate(414.253 446.76)" fill="#e0e0e0"/>
    <rect id="Rectangle_768" data-name="Rectangle 768" width="20.797" height="59.064" transform="translate(460.839 446.76)" fill="#e0e0e0"/>
    <rect id="Rectangle_769" data-name="Rectangle 769" width="20.797" height="59.064" transform="translate(487.459 446.76)" fill="#e0e0e0"/>
    <rect id="Rectangle_770" data-name="Rectangle 770" width="20.797" height="59.064" transform="translate(514.079 446.76)" fill="#e0e0e0"/>
    <rect id="Rectangle_771" data-name="Rectangle 771" width="20.797" height="59.064" transform="translate(560.665 446.76)" fill="#e0e0e0"/>
    <rect id="Rectangle_772" data-name="Rectangle 772" width="20.797" height="59.064" transform="translate(587.285 446.76)" fill="#e0e0e0"/>
    <rect id="Rectangle_773" data-name="Rectangle 773" width="20.797" height="59.064" transform="translate(613.905 446.76)" fill="#e0e0e0"/>
    <rect id="Rectangle_774" data-name="Rectangle 774" width="20.797" height="59.064" transform="translate(660.491 446.76)" fill="#e0e0e0"/>
    <rect id="Rectangle_775" data-name="Rectangle 775" width="20.797" height="59.064" transform="translate(687.111 446.76)" fill="#e0e0e0"/>
    <rect id="Rectangle_776" data-name="Rectangle 776" width="20.797" height="59.064" transform="translate(713.731 446.76)" fill="#e0e0e0"/>
    <rect id="Rectangle_777" data-name="Rectangle 777" width="124" height="68" transform="translate(236.688 350.836)" fill="#f84923"/>
    <rect id="Rectangle_778" data-name="Rectangle 778" width="76" height="76" transform="translate(718.688 573.836)" fill="#6c63ff" opacity="0.1"/>
    <rect id="Rectangle_779" data-name="Rectangle 779" width="76" height="76" transform="translate(756.688 573.836)" fill="#6c63ff" opacity="0.1"/>
  </g>
</svg>
